# xmcd
#
# Track frame offsets: 
#        150
#        16767
#        37428
#        66904
#        83550
#        104423
#        123466
#        146798
#        172770
#        191235
#        212653
#        242898
#
# Disc length: 3439 seconds
#
# Revision: 0
# Processed by: cddbd v1.5.2PL0 Copyright (c) Steve Scherf et al.
# Submitted via: ExactAudioCopyFreeDBPlugin 1.0
#
DISCID=ad0d6d0c
DTITLE=Thomas ( Leron) - Cliquish
DYEAR=2015
DGENRE=Blues
TTITLE0=Extrospection
TTITLE1=Cliquish
TTITLE2=Role Play
TTITLE3=Snicka Bar
TTITLE4=Victorian Walls
TTITLE5=Asako
TTITLE6=Park
TTITLE7=Mandy Jo
TTITLE8=Calm Down
TTITLE9=Stride
TTITLE10=Don't You Know
TTITLE11=Introspection
EXTD=
EXTT0=
EXTT1=
EXTT2=
EXTT3=
EXTT4=
EXTT5=
EXTT6=
EXTT7=
EXTT8=
EXTT9=
EXTT10=
EXTT11=
PLAYORDER=
